#!OML:ASF H:\Terrain\Patient Classification 1\Animal2\Wednesday\Animal2.ASF
:FULLY-SPECIFIED
:DEGREES
3561
root 10.7851 18.9268 -10.67 6.85847 -20.7062 -2.29551
lowerback 3.90903 -0.500448 2.90637
upperback -3.7913 -0.772884 -4.91014
thorax -6.27949 -0.653631 -6.75045
lowerneck -3.2512 -4.32923 11.0118
upperneck -13.7617 -7.6298 -14.4474
head -4.47554 -3.7573 -6.10975
rclavicle 3.93221e-014 2.22639e-014
rhumerus 88.6769 -41.4362 -53.5787
rradius 47.1391
rwrist -9.08444
rhand -39.6097 14.3266
rfingers 7.12502
rthumb -12.5915 -15.274
lclavicle 3.93221e-014 2.22639e-014
lhumerus -62.9271 22.6113 28.0589
lradius 56.3355
lwrist 86.1819
lhand -44.4525 46.7962
lfingers 7.12502
lthumb -17.2568 436.05
rfemur -12.5478 2.14391 7.72793
rtibia 33.5848
rfoot 6.33808 -2.17516
rtoes 10.5938
lfemur -21.7547 -4.50912 0.955743
ltibia 33.0096
lfoot 9.45708 4.56166
ltoes -27.4154
3562
root 10.7388 18.941 -10.7161 6.82646 -20.1898 -2.35985
lowerback 3.97984 -0.365367 2.90779
upperback -3.83543 -0.586511 -4.83939
thorax -6.33937 -0.561134 -6.69377
lowerneck -3.41945 -4.2761 11.7446
upperneck -13.0244 -7.58815 -15.3215
head -4.27211 -3.75384 -6.52392
rclavicle 1.60581e-014 -2.06736e-014
rhumerus 88.1918 -41.1279 -53.4434
rradius 46.962
rwrist -10.4731
rhand -39.6755 12.6846
rfingers 7.12502
rthumb -12.655 -16.912
lclavicle 1.60581e-014 -2.06736e-014
lhumerus -63.2378 22.5592 26.0452
lradius 57.9375
lwrist 87.2338
lhand -43.7849 45.4371
lfingers 7.12502
lthumb -16.6141 434.746
rfemur -12.6918 2.38602 7.78237
rtibia 33.3604
rfoot 7.51474 -2.78842
rtoes 12.9996
lfemur -21.7871 -4.05998 0.885415
ltibia 33.5494
lfoot 11.0324 2.49957
ltoes -24.5854
3563
root 10.6933 18.9378 -10.7659 6.80673 -19.6218 -2.58797
lowerback 4.12083 -0.137935 3.07811
upperback -3.80151 -0.264921 -4.83636
thorax -6.34142 -0.40767 -6.82054
lowerneck -2.77573 -4.38943 12.0924
upperneck -13.2112 -7.70351 -15.3653
head -4.47029 -3.79261 -6.57725
rclavicle 1.19752e-014 2.38542e-014
rhumerus 87.6588 -41.0813 -53.4524
rradius 46.7688
rwrist -11.3999
rhand -40.0199 11.5129
rfingers 7.12502
rthumb -12.987 -18.0629
lclavicle 1.19752e-014 2.38542e-014
lhumerus -62.7694 22.527 24.1855
lradius 59.2269
lwrist 88.2763
lhand -43.0926 43.8277
lfingers 7.12502
lthumb -15.9476 433.191
rfemur -12.7967 2.56048 7.97522
rtibia 33.0833
rfoot 8.87565 -2.77591
rtoes 14.7932
lfemur -21.756 -3.44926 0.955782
ltibia 34.2331
lfoot 12.6667 0.255571
ltoes -21.3006
3564
root 10.6518 18.9168 -10.8129 6.83473 -18.9929 -2.80611
lowerback 4.10943 0.0426407 3.27415
upperback -3.73702 -0.000668563 -4.76423
thorax -6.22889 -0.277486 -6.87905
lowerneck -2.96808 -4.43855 11.9967
upperneck -12.4845 -7.69849 -15.3714
head -4.21647 -3.80049 -6.56009
rclavicle -6.24929e-015 1.90833e-014
rhumerus 87.0926 -41.1396 -53.3583
rradius 46.7497
rwrist -12.1986
rhand -40.066 10.4484
rfingers 7.12502
rthumb -13.0314 -19.1245
lclavicle -6.24929e-015 1.90833e-014
lhumerus -62.2109 22.7856 22.366
lradius 60.3747
lwrist 88.7186
lhand -41.8584 42.6804
lfingers 7.12502
lthumb -14.7587 432.135
rfemur -12.9357 2.29625 8.1081
rtibia 32.8095
rfoot 10.1096 -1.92264
rtoes 16.398
lfemur -21.8534 -3.07802 1.05986
ltibia 35.0347
lfoot 13.5062 -1.40331
ltoes -19.5713
3565
root 10.611 18.8859 -10.8609 6.71941 -18.356 -2.80747
lowerback 4.25223 0.157483 3.21531
upperback -3.74998 0.160065 -4.63124
thorax -6.30024 -0.193 -6.71915
lowerneck -4.23141 -4.13244 11.9615
upperneck -10.4926 -7.20655 -15.8625
head -3.35236 -3.62101 -6.75703
rclavicle -1.25545e-014 -2.38542e-014
rhumerus 86.3255 -41.0256 -52.7993
rradius 46.6907
rwrist -13.0906
rhand -40.1684 9.52815
rfingers 7.12502
rthumb -13.1302 -20.0385
lclavicle -1.25545e-014 -2.38542e-014
lhumerus -62.0248 22.8906 20.7441
lradius 62.016
lwrist 89.1488
lhand -40.3296 42.4259
lfingers 7.12502
lthumb -13.2855 431.982
rfemur -13.0195 1.69469 7.97302
rtibia 32.6211
rfoot 10.8259 -0.1282
rtoes 17.3857
lfemur -21.9928 -2.76971 0.966297
ltibia 35.913
lfoot 14.1323 -2.77763
ltoes -19.9768
3566
root 10.5687 18.8494 -10.9151 6.45119 -17.6449 -2.80894
lowerback 4.61101 0.247935 3.18861
upperback -3.7492 0.292204 -4.51489
thorax -6.48709 -0.127932 -6.59838
lowerneck -3.68254 -3.88591 11.4724
upperneck -10.3619 -6.75327 -15.4813
head -3.31428 -3.36601 -6.55051
rclavicle -5.81942e-014 3.65764e-014
rhumerus 85.3234 -40.8366 -52.0258
rradius 46.7294
rwrist -14.0129
rhand -40.3872 8.89613
rfingers 7.12502
rthumb -13.341 -20.6568
lclavicle -5.81942e-014 3.65764e-014
lhumerus -61.6528 22.831 19.3385
lradius 63.7608
lwrist 89.7406
lhand -39.364 41.9058
lfingers 7.12502
lthumb -12.3547 431.521
rfemur -12.8649 1.44503 7.84834
rtibia 32.5859
rfoot 11.0305 1.65497
rtoes 17.4501
lfemur -22.0602 -2.505 0.890788
ltibia 36.8379
lfoot 14.8917 -4.19465
ltoes -21.3768
